# xmcd
# Track frame offsets:
# 150
# 19613
# 32408
# 48305
# 65933
# 82103
# 100696
# 116930
# 131538
# 147145
#
# Disc length: 2262 seconds
# Revision: 0
# Processed by: cddbd v1.5.1PL2 Copyright (c) Steve Scherf et al.
# Submitted via: VisiTrax 2.10.0.248 - For more info visit www.synapsa.com
#
DISCID=8708d40a
DTITLE=Lila McCann - Lila
DYEAR=1900
DGENRE=Country
TTITLE0=I Wanna Fall In Love
TTITLE1=Just One Little Kiss
TTITLE2=Almost Over You
TTITLE3=Down Came A Blackbird
TTITLE4=Already Somebody's Lover
TTITLE5=Changing Faces
TTITLE6=Yippy Ky Yay
TTITLE7=I Feel For You
TTITLE8=Saddle My Dreams
TTITLE9=A Rain Of Angels
EXTD=
EXTT0=
EXTT1=
EXTT2=
EXTT3=
EXTT4=
EXTT5=
EXTT6=
EXTT7=
EXTT8=
EXTT9=
PLAYORDER=
